<?xml version="1.0" encoding="UTF-8"?>
<svg id="Layer_1" data-name="Layer 1" xmlns="http://www.w3.org/2000/svg" version="1.1" viewBox="0 0 1366 768">
  <defs>
    <style>
      .cls-1 {
        fill: #0e0e12;
        stroke-width: 0px;
      }
    </style>
  </defs>
  <g>
    <path class="cls-1" d="M272.6,218.2h10.5v28.6l-17.2.3c-36.6.3-48.6-21.5-48.6-51.1v-80.9h-24.9v-27.7h24.9v-36.3l35.1-15.7v52h31.1v27.7h-31.1v76.6c0,17.2,4.9,26.5,20.3,26.5Z"/>
    <path class="cls-1" d="M291.1,8.7l35.1-2.3v109c8.3-18.2,23.1-32.3,47.7-32.3,41.2,0,57.2,27.4,57.2,64v99.4h-35.4v-92c0-24.6-8.3-40.6-30.5-40.6s-38.5,19.1-38.5,58.8v73.8h-35.7V8.7Z"/>
    <path class="cls-1" d="M519.7,250.8c-47.7,0-80-34.2-80-84.3s33.8-83.4,80-83.4,76.6,41.8,76.9,87.1c0,1.5,0,4-.3,6.8h-122.5c2.8,28,20.6,45.2,45.8,45.2s33.5-7.1,39.1-22.8h35.4c-9.2,32.3-36.6,51.4-74.5,51.4ZM561.5,151.7c-2.2-22.8-15.4-40.9-41.8-40.9s-42.2,16.3-45.5,40.9h87.4Z"/>
  </g>
  <g>
    <path class="cls-1" d="M147.3,441.6h10.5v28.6l-17.2.3c-36.6.3-48.6-21.5-48.6-51.1v-80.9h-24.9v-27.7h24.9v-36.3l35.1-15.7v52h31.1v27.7h-31.1v76.6c0,17.2,4.9,26.5,20.3,26.5Z"/>
    <path class="cls-1" d="M157.8,390.5c0-49.8,35.1-84,82.2-84s81.8,34.2,81.8,84-35.1,83.7-81.8,83.7-82.2-33.8-82.2-83.7ZM287,390.5c0-30.5-18.8-55.1-47.1-55.1s-47.4,24.6-47.4,55.1,18.8,54.8,47.4,54.8,47.1-24.6,47.1-54.8Z"/>
    <path class="cls-1" d="M331.3,310.8h35.1v26.5c4.3-14.8,19.4-30.8,41.8-30.8s37.5,9.8,45.2,30.5c9.2-19.7,22.5-30.5,44.9-30.5,39.7,0,57.8,27.4,57.8,64v99.4h-35.4v-92c0-24.6-8-40.6-27.4-40.6s-32.3,20-32.3,56v76.6h-34.8v-92c0-24.6-4.9-40.6-27.1-40.6s-32.3,27.1-32.3,58.8v73.8h-35.7v-159.1Z"/>
    <path class="cls-1" d="M564.8,390.5c0-49.8,35.1-84,82.2-84s81.8,34.2,81.8,84-35.1,83.7-81.8,83.7-82.2-33.8-82.2-83.7ZM694.1,390.5c0-30.5-18.8-55.1-47.1-55.1s-47.4,24.6-47.4,55.1,18.8,54.8,47.4,54.8,47.1-24.6,47.1-54.8Z"/>
    <path class="cls-1" d="M773.8,340.3c8.3-22.2,24.9-30.8,47.7-31.1v33.8c-1.8,0-11.1,0-16,1.5-15.7,3.1-31.1,11.4-31.1,52.6v72.6h-35.7v-159.1h35.1v29.5Z"/>
    <path class="cls-1" d="M863.6,340.3c8.3-22.2,24.9-30.8,47.7-31.1v33.8c-1.8,0-11.1,0-16,1.5-15.7,3.1-31.1,11.4-31.1,52.6v72.6h-35.7v-159.1h35.1v29.5Z"/>
    <path class="cls-1" d="M906.7,390.5c0-49.8,35.1-84,82.2-84s81.8,34.2,81.8,84-35.1,83.7-81.8,83.7-82.2-33.8-82.2-83.7ZM1035.9,390.5c0-30.5-18.8-55.1-47.1-55.1s-47.4,24.6-47.4,55.1,18.8,54.8,47.4,54.8,47.1-24.6,47.1-54.8Z"/>
    <path class="cls-1" d="M1062.7,310.8h36.9l20.9,82.2c3.7,15.1,5.5,26.5,8.9,42.2h.3c3.7-15.1,5.5-27.1,9.2-43.4l20.6-80.9h42.5l20.6,81.2c3.4,13.5,6.5,29.2,9.5,43.4h.3c3.1-12.9,6.5-28.6,9.5-43.4l20.3-81.2h36.6l-46.2,159.1h-41.2l-21.8-81.8c-3.1-13.2-6.5-27.4-8.9-39.1h-.6c-2.8,13.2-5.2,24.9-8.9,38.8l-21.5,82.2h-41.2l-45.8-159.1Z"/>
  </g>
  <g>
    <path class="cls-1" d="M464.1,643.7c0-54,42.4-109.2,85.3-109.2s25.4,4.8,35.8,12.2l17-9.2h1.5l-31.9,118.7c-1.2,4.5-1.8,7.8-1.8,10.1,0,3.9,1.5,5.4,4.2,5.4,5.7,0,11.6-6.6,23.3-22.4l6.6,4.8c-14.9,22.1-29.2,35.5-45.9,35.5s-16.4-5.7-16.4-16.4.3-5.4.9-8.7c-10.1,14.6-24.2,25.1-40.9,25.1s-37.6-18.8-37.6-45.9ZM515.4,671.2c14,0,28.6-17.3,37.3-44.1l18.2-68c-7.2-8.1-14.6-13.1-25.4-13.1-28.3,0-53.4,43-53.4,85s10.1,40.3,23.3,40.3Z"/>
    <path class="cls-1" d="M574.4,729.9c0-23,24.8-38.8,49.8-44.4l-5.1-.9c-18.8-3-28.9-8.9-28.9-17.6s5.1-13.1,15.8-21.2l18.2-13.7c-7.8-6.6-12.5-16.1-12.5-28,0-36.1,34.3-69.5,70.1-69.5s12.5.9,17.9,3h63.5l-.6,1.5-40,19.4c1.5,4.2,2.4,8.9,2.4,14,0,35.5-34.9,69.2-71.3,69.2s-14.6-1.5-20.6-4.2l-12.5,9.5c-3.6,2.7-5.4,5.7-5.4,8.1s2.1,5.1,6.6,5.7l65.3,10.1c17.9,2.7,31.9,9.2,31.9,25.1,0,33.1-44.1,65.3-95.2,65.3s-49.5-10.1-49.5-31.3ZM634.4,749.6c28.3,0,63.8-15.8,63.8-40.3s-8.4-13.4-19.4-15.2l-28-4.5c-2.4-.3-4.5-.6-6.9-.6-16.4,0-40.6,13.7-40.6,36.1s11,24.5,31,24.5ZM660,630c19.4,0,36.1-27.1,36.1-57.9s-6.6-26-20.3-26c-20,0-35.2,27.4-35.2,57.9s6.6,25.9,19.4,25.9Z"/>
    <path class="cls-1" d="M724.8,639.5c0-49.8,45.9-105,87.1-105s33.7,11.3,33.7,28.3c0,28.6-33.4,44.4-90.4,45.9-1.5,7.2-2.4,14-2.4,20.3,0,26.2,14.3,41.8,31.9,41.8s23.6-6.9,38.8-23l6.3,6.3c-18.8,21.5-38.8,35.5-58.8,35.5s-46.2-16.4-46.2-50.1ZM817.8,562.6c0-8.1-4.2-16.1-13.7-16.1-19.1,0-36.4,24.2-45.3,50.1,42.7-1.5,59.1-13.4,59.1-34Z"/>
    <path class="cls-1" d="M920.7,673.2c0-3.6.9-7.8,2.1-12.5l19.7-73.4c2.1-8.4,3.9-16.7,3.9-23s-2.4-13.1-9.5-13.1c-19.7,0-51.9,52.8-66.5,100.8l-9.2,34.6h-26.5l33.7-126.2-19.7-8.9.3-1.5,52.5-14-15.5,58.2c16.7-32.2,40-59.7,64.1-59.7s23.6,10.7,23.6,26-1.2,14.3-3.3,22.4l-19.7,73.4c-1.2,4.2-1.8,7.5-1.8,9.8,0,4.2,1.8,5.7,4.5,5.7,6,0,12.2-6.6,24.2-22.4l6.9,4.8c-15.2,22.1-30.1,35.5-46.8,35.5s-16.7-5.7-16.7-16.4Z"/>
    <path class="cls-1" d="M980.1,638.9c0-50.7,42.4-104.4,92.8-104.4s20.9,1.5,33.4,6.3l-8.1,43.5h-1.2c-8.7-22.4-19.4-36.7-35.5-36.7-32.2,0-53.4,47.1-53.4,81.1s13.4,42.1,28.3,42.1,25.4-6.3,40.6-22.7l6.3,6c-18.5,21.8-38.2,35.5-58.5,35.5s-44.7-13.1-44.7-50.7Z"/>
    <path class="cls-1" d="M1075.6,753.8l61.1-71-21.5-123.8-21.2-9.8.3-1.5,43.3-11.6,20.3,118.7c26-35.8,35.2-60,35.2-79s-5.4-23.3-12.5-32.8l25.7-6.9c4.8,9.5,7.8,17.9,7.8,27.7,0,25.4-19.4,55.5-68.6,128.3l-47.1,69.5-22.7-7.8Z"/>
  </g>
  <path class="cls-1" d="M1245.8,552.6c-12.3,0-22.7-9.7-22.7-22.6s10.4-22.4,22.7-22.4,22.6,9.7,22.6,22.4-10.3,22.6-22.6,22.6ZM1245.8,547.8c9.5,0,17.1-7.6,17.1-17.8s-7.6-17.6-17.1-17.6-17.3,7.7-17.3,17.6,7.7,17.8,17.3,17.8ZM1253.5,535c-.7-1.8-.9-3.1-2.8-3.8,2-.5,4-2.4,4-5.9s-3.4-6-8.2-6h-8.9v21.1h5.7v-7.2h1.8c1.9.1,2.7,1.1,3.2,2.7.5,1.9,1.2,3.8,2.1,4.5h5.4v-.2c-.9-1.5-1.5-3.2-2.2-5.1ZM1246.1,528.7h-2.8v-4.7h2.9c1.5,0,3,.5,3,2.2s-1.3,2.5-3.1,2.5Z"/>
</svg>