<?xml version="1.0" encoding="UTF-8"?>
<svg id="Layer_1" data-name="Layer 1" xmlns="http://www.w3.org/2000/svg" version="1.1" viewBox="0 0 1366 768">
  <defs>
    <style>
      .cls-1 {
        fill: #000;
        stroke-width: 0px;
      }
    </style>
  </defs>
  <g>
    <path class="cls-1" d="M521.3,285.1h4.6v12.7h-7.6c-16.2.3-21.5-9.4-21.5-22.5v-35.8h-11v-12.3h11v-16.1l15.5-6.9v23h13.8v12.3h-13.8v33.9c0,7.6,2.2,11.7,9,11.7Z"/>
    <path class="cls-1" d="M529.5,191.4h15.5v48.2c3.7-8,10.2-14.3,21.1-14.3,18.2,0,25.3,12.1,25.3,28.3v44h-15.7v-40.7c0-10.9-3.7-18-13.5-18s-17,8.4-17,26v32.7h-15.8v-106.2Z"/>
    <path class="cls-1" d="M630.6,299.6c-21.1,0-35.4-15.1-35.4-37.3s15-36.9,35.4-36.9,33.9,18.5,34,38.5c0,.7,0,1.8-.1,3h-54.2c1.2,12.4,9.1,20,20.3,20s14.8-3.1,17.3-10.1h15.7c-4.1,14.3-16.2,22.7-32.9,22.7ZM649.2,255.7c-1-10.1-6.8-18.1-18.5-18.1s-18.7,7.2-20.2,18.1h38.7Z"/>
  </g>
  <g>
    <path class="cls-1" d="M465.9,384h4.6v12.7h-7.6c-16.2.3-21.5-9.4-21.5-22.5v-35.8h-11v-12.3h11v-16.1l15.5-6.9v23h13.8v12.3h-13.8v33.9c0,7.6,2.2,11.7,9,11.7Z"/>
    <path class="cls-1" d="M470.5,361.4c0-22.1,15.5-37.2,36.4-37.2s36.2,15.1,36.2,37.2-15.5,37-36.2,37-36.4-15-36.4-37ZM527.7,361.4c0-13.5-8.3-24.4-20.8-24.4s-21,10.9-21,24.4,8.3,24.2,21,24.2,20.8-10.9,20.8-24.2Z"/>
    <path class="cls-1" d="M547.3,326.1h15.5v11.7c1.9-6.5,8.6-13.6,18.5-13.6s16.6,4.4,20,13.5c4.1-8.7,9.9-13.5,19.9-13.5,17.6,0,25.6,12.1,25.6,28.3v44h-15.7v-40.7c0-10.9-3.5-18-12.1-18s-14.3,8.9-14.3,24.8v33.9h-15.4v-40.7c0-10.9-2.2-18-12-18s-14.3,12-14.3,26v32.7h-15.8v-70.4Z"/>
    <path class="cls-1" d="M650.6,361.4c0-22.1,15.5-37.2,36.4-37.2s36.2,15.1,36.2,37.2-15.5,37-36.2,37-36.4-15-36.4-37ZM707.8,361.4c0-13.5-8.3-24.4-20.8-24.4s-21,10.9-21,24.4,8.3,24.2,21,24.2,20.8-10.9,20.8-24.2Z"/>
    <path class="cls-1" d="M743.1,339.2c3.7-9.8,11-13.6,21.1-13.8v15c-.8,0-4.9,0-7.1.7-6.9,1.4-13.8,5-13.8,23.3v32.1h-15.8v-70.4h15.5v13.1Z"/>
    <path class="cls-1" d="M782.8,339.2c3.7-9.8,11-13.6,21.1-13.8v15c-.8,0-4.9,0-7.1.7-6.9,1.4-13.8,5-13.8,23.3v32.1h-15.8v-70.4h15.5v13.1Z"/>
    <path class="cls-1" d="M801.9,361.4c0-22.1,15.5-37.2,36.4-37.2s36.2,15.1,36.2,37.2-15.5,37-36.2,37-36.4-15-36.4-37ZM859.1,361.4c0-13.5-8.3-24.4-20.8-24.4s-21,10.9-21,24.4,8.3,24.2,21,24.2,20.8-10.9,20.8-24.2Z"/>
    <path class="cls-1" d="M870.9,326.1h16.3l9.3,36.4c1.6,6.7,2.5,11.7,3.9,18.7h.1c1.6-6.7,2.5-12,4.1-19.2l9.1-35.8h18.8l9.1,35.9c1.5,6,2.9,12.9,4.2,19.2h.1c1.4-5.7,2.9-12.7,4.2-19.2l9-35.9h16.2l-20.4,70.4h-18.2l-9.7-36.2c-1.4-5.9-2.9-12.1-3.9-17.3h-.3c-1.2,5.9-2.3,11-3.9,17.2l-9.5,36.4h-18.2l-20.3-70.4Z"/>
  </g>
  <g>
    <path class="cls-1" d="M606,473.4c0-23.9,18.7-48.3,37.7-48.3s11.2,2.1,15.8,5.4l7.5-4.1h.7l-14.1,52.5c-.5,2-.8,3.4-.8,4.5,0,1.7.7,2.4,1.8,2.4,2.5,0,5.1-2.9,10.3-9.9l2.9,2.1c-6.6,9.8-12.9,15.7-20.3,15.7s-7.3-2.5-7.3-7.3.1-2.4.4-3.8c-4.5,6.5-10.7,11.1-18.1,11.1s-16.6-8.3-16.6-20.3ZM628.7,485.6c6.2,0,12.7-7.7,16.5-19.5l8.1-30.1c-3.2-3.6-6.5-5.8-11.2-5.8-12.5,0-23.6,19-23.6,37.6s4.5,17.8,10.3,17.8Z"/>
    <path class="cls-1" d="M654.9,511.6c0-10.2,11-17.2,22-19.7l-2.2-.4c-8.3-1.3-12.8-4-12.8-7.8s2.2-5.8,7-9.4l8.1-6.1c-3.4-2.9-5.5-7.1-5.5-12.4,0-16,15.2-30.8,31-30.8s5.5.4,7.9,1.3h28.1l-.3.7-17.7,8.6c.7,1.8,1.1,4,1.1,6.2,0,15.7-15.4,30.6-31.5,30.6s-6.5-.7-9.1-1.8l-5.5,4.2c-1.6,1.2-2.4,2.5-2.4,3.6s.9,2.2,2.9,2.5l28.9,4.5c7.9,1.2,14.1,4.1,14.1,11.1,0,14.7-19.5,28.9-42.1,28.9s-21.9-4.5-21.9-13.9ZM681.4,520.3c12.5,0,28.2-7,28.2-17.8s-3.7-5.9-8.6-6.7l-12.4-2c-1.1-.1-2-.3-3-.3-7.3,0-18,6.1-18,16s4.9,10.8,13.7,10.8ZM692.7,467.3c8.6,0,16-12,16-25.6s-2.9-11.5-9-11.5c-8.8,0-15.6,12.1-15.6,25.6s2.9,11.5,8.6,11.5Z"/>
    <path class="cls-1" d="M721.4,471.6c0-22,20.3-46.5,38.5-46.5s14.9,5,14.9,12.5c0,12.7-14.8,19.7-40,20.3-.7,3.2-1.1,6.2-1.1,9,0,11.6,6.3,18.5,14.1,18.5s10.4-3,17.2-10.2l2.8,2.8c-8.3,9.5-17.2,15.7-26,15.7s-20.5-7.3-20.5-22.2ZM762.6,437.5c0-3.6-1.8-7.1-6.1-7.1-8.4,0-16.1,10.7-20.1,22.2,18.9-.7,26.1-5.9,26.1-15Z"/>
    <path class="cls-1" d="M808.1,486.5c0-1.6.4-3.4.9-5.5l8.7-32.5c.9-3.7,1.7-7.4,1.7-10.2s-1.1-5.8-4.2-5.8c-8.7,0-23,23.4-29.4,44.6l-4.1,15.3h-11.7l14.9-55.8-8.7-4v-.7c.1,0,23.4-6.2,23.4-6.2l-6.9,25.7c7.4-14.3,17.7-26.4,28.4-26.4s10.4,4.8,10.4,11.5-.5,6.3-1.5,9.9l-8.7,32.5c-.5,1.8-.8,3.3-.8,4.4,0,1.8.8,2.5,2,2.5,2.6,0,5.4-2.9,10.7-9.9l3,2.1c-6.7,9.8-13.3,15.7-20.7,15.7s-7.4-2.5-7.4-7.3Z"/>
    <path class="cls-1" d="M834.4,471.3c0-22.4,18.7-46.2,41-46.2s9.2.7,14.8,2.8l-3.6,19.3h-.5c-3.8-9.9-8.6-16.2-15.7-16.2-14.3,0-23.6,20.9-23.6,35.9s5.9,18.6,12.5,18.6,11.2-2.8,18-10l2.8,2.6c-8.2,9.6-16.9,15.7-25.9,15.7s-19.8-5.8-19.8-22.4Z"/>
    <path class="cls-1" d="M876.6,522.1l27.1-31.4-9.5-54.8-9.4-4.4v-.7c.1,0,19.3-5.1,19.3-5.1l9,52.5c11.5-15.8,15.6-26.5,15.6-35s-2.4-10.3-5.5-14.5l11.4-3c2.1,4.2,3.4,7.9,3.4,12.3,0,11.2-8.6,24.5-30.4,56.8l-20.9,30.8-10-3.4Z"/>
  </g>
  <path class="cls-1" d="M951.9,433.1c-5.5,0-10.1-4.3-10.1-10s4.6-9.9,10.1-9.9,10,4.3,10,9.9-4.6,10-10,10ZM951.9,431c4.2,0,7.6-3.3,7.6-7.9s-3.4-7.8-7.6-7.8-7.7,3.4-7.7,7.8,3.4,7.9,7.7,7.9ZM955.4,425.3c-.3-.8-.4-1.4-1.3-1.7.9-.2,1.8-1,1.8-2.6s-1.5-2.7-3.6-2.7h-3.9v9.3h2.5v-3.2h.8c.9,0,1.2.5,1.4,1.2.2.8.5,1.7.9,2h2.4c-.4-.8-.7-1.5-1-2.4ZM952.1,422.5h-1.3v-2.1h1.3c.7,0,1.3.2,1.3,1s-.6,1.1-1.4,1.1Z"/>
</svg>